<svg width="14" height="14" viewBox="0 0 14 14" fill="none" xmlns="http://www.w3.org/2000/svg">
<g clip-path="url(#clip0_531_2833)">
<path fill-rule="evenodd" clip-rule="evenodd" d="M9.58289 8.14784V9.86976C9.58289 10.0283 9.71149 10.1568 9.86989 10.1568H11.5919C11.7504 10.1568 11.8789 10.0283 11.8789 9.86976C11.8789 9.71136 11.7504 9.58276 11.5919 9.58276H10.1569V8.14784C10.1569 7.98933 10.0284 7.86084 9.86991 7.86084C9.71151 7.86084 9.58291 7.98933 9.58291 8.14784H9.58289Z" fill="black"/>
<path fill-rule="evenodd" clip-rule="evenodd" d="M2.69497 5.85206C2.69497 6.01057 2.56648 6.13906 2.40797 6.13906C2.24947 6.13906 2.12097 6.01057 2.12097 5.85206C2.12097 5.69356 2.24947 5.56506 2.40797 5.56506C2.56648 5.56506 2.69497 5.69356 2.69497 5.85206Z" fill="black"/>
<path fill-rule="evenodd" clip-rule="evenodd" d="M2.69497 7.00001C2.69497 7.15852 2.56648 7.28701 2.40797 7.28701C2.24947 7.28701 2.12097 7.15852 2.12097 7.00001C2.12097 6.84151 2.24947 6.71301 2.40797 6.71301C2.56648 6.71301 2.69497 6.84151 2.69497 7.00001Z" fill="black"/>
<path fill-rule="evenodd" clip-rule="evenodd" d="M2.69497 8.14784C2.69497 8.30635 2.56648 8.43484 2.40797 8.43484C2.24947 8.43484 2.12097 8.30635 2.12097 8.14784C2.12097 7.98933 2.24947 7.86084 2.40797 7.86084C2.56648 7.86084 2.69497 7.98933 2.69497 8.14784Z" fill="black"/>
<path fill-rule="evenodd" clip-rule="evenodd" d="M3.84292 5.85206C3.84292 6.01057 3.71443 6.13906 3.55592 6.13906C3.39741 6.13906 3.26892 6.01057 3.26892 5.85206C3.26892 5.69356 3.39741 5.56506 3.55592 5.56506C3.71443 5.56506 3.84292 5.69356 3.84292 5.85206Z" fill="black"/>
<path fill-rule="evenodd" clip-rule="evenodd" d="M3.84292 7.00001C3.84292 7.15852 3.71443 7.28701 3.55592 7.28701C3.39741 7.28701 3.26892 7.15852 3.26892 7.00001C3.26892 6.84151 3.39741 6.71301 3.55592 6.71301C3.71443 6.71301 3.84292 6.84151 3.84292 7.00001Z" fill="black"/>
<path fill-rule="evenodd" clip-rule="evenodd" d="M3.84292 8.14784C3.84292 8.30635 3.71443 8.43484 3.55592 8.43484C3.39741 8.43484 3.26892 8.30635 3.26892 8.14784C3.26892 7.98933 3.39741 7.86084 3.55592 7.86084C3.71443 7.86084 3.84292 7.98933 3.84292 8.14784Z" fill="black"/>
<path fill-rule="evenodd" clip-rule="evenodd" d="M4.99099 5.85206C4.99099 6.01057 4.8625 6.13906 4.70399 6.13906C4.54549 6.13906 4.41699 6.01057 4.41699 5.85206C4.41699 5.69356 4.54549 5.56506 4.70399 5.56506C4.8625 5.56506 4.99099 5.69356 4.99099 5.85206Z" fill="black"/>
<path fill-rule="evenodd" clip-rule="evenodd" d="M4.99099 7.00001C4.99099 7.15852 4.8625 7.28701 4.70399 7.28701C4.54549 7.28701 4.41699 7.15852 4.41699 7.00001C4.41699 6.84151 4.54549 6.71301 4.70399 6.71301C4.8625 6.71301 4.99099 6.84151 4.99099 7.00001Z" fill="black"/>
<path fill-rule="evenodd" clip-rule="evenodd" d="M4.99099 8.14784C4.99099 8.30635 4.8625 8.43484 4.70399 8.43484C4.54549 8.43484 4.41699 8.30635 4.41699 8.14784C4.41699 7.98933 4.54549 7.86084 4.70399 7.86084C4.8625 7.86084 4.99099 7.98933 4.99099 8.14784Z" fill="black"/>
<path fill-rule="evenodd" clip-rule="evenodd" d="M6.13894 5.85206C6.13894 6.01057 6.01045 6.13906 5.85194 6.13906C5.69344 6.13906 5.56494 6.01057 5.56494 5.85206C5.56494 5.69356 5.69344 5.56506 5.85194 5.56506C6.01045 5.56506 6.13894 5.69356 6.13894 5.85206Z" fill="black"/>
<path fill-rule="evenodd" clip-rule="evenodd" d="M6.13894 7.00001C6.13894 7.15852 6.01045 7.28701 5.85194 7.28701C5.69344 7.28701 5.56494 7.15852 5.56494 7.00001C5.56494 6.84151 5.69344 6.71301 5.85194 6.71301C6.01045 6.71301 6.13894 6.84151 6.13894 7.00001Z" fill="black"/>
<path fill-rule="evenodd" clip-rule="evenodd" d="M6.13894 8.14784C6.13894 8.30635 6.01045 8.43484 5.85194 8.43484C5.69344 8.43484 5.56494 8.30635 5.56494 8.14784C5.56494 7.98933 5.69344 7.86084 5.85194 7.86084C6.01045 7.86084 6.13894 7.98933 6.13894 8.14784Z" fill="black"/>
<path fill-rule="evenodd" clip-rule="evenodd" d="M7.28713 5.85206C7.28713 6.01057 7.15864 6.13906 7.00013 6.13906C6.84163 6.13906 6.71313 6.01057 6.71313 5.85206C6.71313 5.69356 6.84163 5.56506 7.00013 5.56506C7.15864 5.56506 7.28713 5.69356 7.28713 5.85206Z" fill="black"/>
<path fill-rule="evenodd" clip-rule="evenodd" d="M8.43496 5.85206C8.43496 6.01057 8.30647 6.13906 8.14796 6.13906C7.98946 6.13906 7.86096 6.01057 7.86096 5.85206C7.86096 5.69356 7.98946 5.56506 8.14796 5.56506C8.30647 5.56506 8.43496 5.69356 8.43496 5.85206Z" fill="black"/>
<path fill-rule="evenodd" clip-rule="evenodd" d="M6.14986 10.1568H1.83393C1.45336 10.1568 1.08826 10.0056 0.819117 9.73674C0.550167 9.46746 0.398926 9.10239 0.398926 8.72193V2.98193C0.398926 2.60136 0.55017 2.23626 0.819117 1.96712C1.08828 1.69817 1.45336 1.54693 1.83393 1.54693H2.14966C2.28275 0.892289 2.86221 0.398926 3.55595 0.398926C4.24958 0.398926 4.82905 0.892289 4.96224 1.54693H5.59361C5.7268 0.892289 6.30624 0.398926 7.00001 0.398926C7.69364 0.398926 8.27311 0.892289 8.4063 1.54693H8.72203C9.1025 1.54693 9.46759 1.69817 9.73684 1.96712C10.0057 2.23628 10.1569 2.60136 10.1569 2.98193V6.14997C12.0822 6.29663 13.6009 7.90755 13.6009 9.87009C13.6009 11.9294 11.9292 13.6011 9.86982 13.6011C7.90736 13.6011 6.29653 12.0824 6.1497 10.1572L6.14986 10.1568ZM9.86998 6.71287C11.6124 6.71287 13.0271 8.12747 13.0271 9.86971C13.0271 11.6121 11.6125 13.0268 9.86998 13.0268C8.12766 13.0268 6.71314 11.6122 6.71314 9.86971C6.71314 8.12739 8.12775 6.71287 9.86998 6.71287ZM9.58298 6.14975V4.41684H0.97298V8.72184C0.97298 8.95021 1.06366 9.16927 1.22527 9.33057C1.38655 9.49207 1.60551 9.58275 1.834 9.58275H6.14993C6.28943 7.75234 7.75252 6.2892 9.58294 6.14975L9.58298 6.14975ZM6.18798 2.12093C6.30622 2.45526 6.62537 2.69493 6.99995 2.69493C7.15835 2.69493 7.28695 2.82353 7.28695 2.98193C7.28695 3.14033 7.15835 3.26893 6.99995 3.26893C6.30621 3.26893 5.72677 2.77556 5.59355 2.12093H2.74406C2.8623 2.45526 3.18145 2.69493 3.55603 2.69493C3.71444 2.69493 3.84303 2.82353 3.84303 2.98193C3.84303 3.14033 3.71443 3.26893 3.55603 3.26893C2.8623 3.26893 2.28286 2.77556 2.14975 2.12093H1.83401C1.60554 2.12093 1.38658 2.21161 1.22528 2.37322C1.06367 2.5345 0.972991 2.75346 0.972991 2.98194V3.84294H9.58299V2.98194C9.58299 2.75347 9.49231 2.53452 9.33081 2.37322C9.16952 2.21161 8.95046 2.12093 8.72208 2.12093H6.18798ZM4.36782 1.54693C4.24958 1.21259 3.93043 0.972926 3.55595 0.972926C3.18137 0.972926 2.86221 1.21261 2.74398 1.54693H4.36782ZM7.81176 1.54693C7.69352 1.21259 7.37437 0.972926 6.9999 0.972926C6.62532 0.972926 6.30616 1.21261 6.18793 1.54693H7.81176Z" fill="black"/>
</g>
<defs>
<clipPath id="clip0_531_2833">
<rect width="14" height="14" fill="white"/>
</clipPath>
</defs>
</svg>
